<?xml version="1.0" encoding="utf-8"?>
<!-- Generator: Adobe Illustrator 16.0.0, SVG Export Plug-In . SVG Version: 6.00 Build 0)  -->
<!DOCTYPE svg PUBLIC "-//W3C//DTD SVG 1.1//EN" "http://www.w3.org/Graphics/SVG/1.1/DTD/svg11.dtd">
<svg version="1.1" id="Calque_1" xmlns="http://www.w3.org/2000/svg" xmlns:xlink="http://www.w3.org/1999/xlink" x="0px" y="0px"
	 width="48px" height="48px" viewBox="0 0 48 48" enable-background="new 0 0 48 48" xml:space="preserve">
<g>
	<path fill="transparent" d="M24,46.5C11.593,46.5,1.5,36.406,1.5,24C1.5,11.593,11.593,1.5,24,1.5c12.406,0,22.5,10.093,22.5,22.5v22.5
		H24z"/>
	<path fill="#343b46" d="M24,3c11.579,0,21,9.42,21,21v21H24C12.42,45,3,35.579,3,24C3,12.42,12.42,3,24,3 M24,0
		C10.746,0,0,10.745,0,24c0,13.254,10.746,24,24,24h24V24C48,10.745,37.255,0,24,0L24,0z"/>
</g>
<g>
	<path fill="#343b46" d="M14,17.22c0-1.267,0.407-2.551,1.221-3.851c0.812-1.3,2-2.376,3.561-3.229
		c1.558-0.854,3.379-1.28,5.459-1.28c1.933,0,3.642,0.356,5.119,1.07c1.481,0.713,2.625,1.684,3.432,2.91
		c0.806,1.227,1.209,2.56,1.209,4c0,1.133-0.229,2.127-0.689,2.979c-0.461,0.854-1.007,1.591-1.64,2.209
		c-0.634,0.621-1.77,1.665-3.41,3.13c-0.453,0.415-0.816,0.777-1.091,1.091c-0.274,0.312-0.478,0.601-0.61,0.858
		c-0.133,0.26-0.235,0.521-0.309,0.781c-0.076,0.258-0.185,0.717-0.332,1.369c-0.253,1.388-1.046,2.081-2.379,2.081
		c-0.692,0-1.277-0.228-1.75-0.68c-0.474-0.454-0.71-1.127-0.71-2.02c0-1.121,0.173-2.093,0.52-2.909
		c0.347-0.822,0.808-1.542,1.379-2.161c0.574-0.621,1.347-1.357,2.323-2.21c0.851-0.747,1.469-1.31,1.848-1.691
		c0.383-0.378,0.701-0.802,0.96-1.27c0.262-0.465,0.391-0.973,0.391-1.52c0-1.066-0.397-1.966-1.191-2.7
		c-0.792-0.733-1.816-1.1-3.068-1.1c-1.468,0-2.547,0.371-3.24,1.109c-0.693,0.741-1.28,1.831-1.76,3.27
		c-0.454,1.508-1.313,2.261-2.58,2.261c-0.747,0-1.377-0.263-1.89-0.79C14.257,18.403,14,17.833,14,17.22z M23.76,39.141
		c-0.813,0-1.523-0.265-2.13-0.79c-0.606-0.526-0.91-1.265-0.91-2.21c0-0.839,0.293-1.547,0.88-2.12
		c0.586-0.573,1.307-0.861,2.16-0.861c0.84,0,1.548,0.288,2.121,0.861c0.572,0.573,0.859,1.281,0.859,2.12
		c0,0.933-0.299,1.665-0.9,2.199C25.242,38.872,24.546,39.141,23.76,39.141z"/>
</g>
</svg>
