<?xml version="1.0" encoding="utf-8"?>
<!-- Generator: Adobe Illustrator 16.0.0, SVG Export Plug-In . SVG Version: 6.00 Build 0)  -->
<!DOCTYPE svg PUBLIC "-//W3C//DTD SVG 1.1//EN" "http://www.w3.org/Graphics/SVG/1.1/DTD/svg11.dtd">
<svg version="1.1" id="Calque_1" xmlns="http://www.w3.org/2000/svg" xmlns:xlink="http://www.w3.org/1999/xlink" x="0px" y="0px"
	 width="256px" height="256px" viewBox="0 0 256 256" enable-background="new 0 0 256 256" xml:space="preserve">
<g>
	<g>
		<path d="M98.655,235.819H85.128v-93.178c0-16.15-13.145-29.292-29.301-29.292c-16.159,0-29.304,13.142-29.304,29.292v93.178H13
			v-93.178c0-23.608,19.212-42.816,42.827-42.816c23.616,0,42.828,19.208,42.828,42.816V235.819z"/>
	</g>
	<g>
		<path d="M55.827,56.246c8.701,0,15.778,7.078,15.778,15.78c0,8.698-7.078,15.776-15.778,15.776c-8.7,0-15.778-7.078-15.778-15.776
			C40.049,63.324,47.127,56.246,55.827,56.246 M55.827,42.723c-16.184,0-29.304,13.118-29.304,29.304
			c0,16.183,13.12,29.299,29.304,29.299c16.181,0,29.301-13.117,29.301-29.299C85.128,55.84,72.008,42.723,55.827,42.723
			L55.827,42.723z"/>
	</g>
</g>
<g>
	<g>
		<g>
			<path d="M170.873,235.819H157.35V120.104c0-16.154-13.149-29.293-29.304-29.293c-16.156,0-29.304,13.14-29.304,29.293v115.716
				H85.219V120.104c0-23.612,19.212-42.819,42.827-42.819c23.61,0,42.827,19.208,42.827,42.819V235.819z"/>
		</g>
	</g>
	<g>
		<g>
			<path d="M128.046,33.705c8.7,0,15.777,7.078,15.777,15.78c0,8.699-7.077,15.777-15.777,15.777
				c-8.701,0-15.778-7.078-15.778-15.777C112.268,40.783,119.345,33.705,128.046,33.705 M128.046,20.182
				c-16.184,0-29.304,13.121-29.304,29.303c0,16.183,13.12,29.303,29.304,29.303c16.183,0,29.304-13.12,29.304-29.303
				C157.35,33.302,144.229,20.182,128.046,20.182L128.046,20.182z"/>
		</g>
	</g>
</g>
<g>
	<g>
		<g>
			<path d="M243,235.819h-13.523v-93.178c0-16.15-13.147-29.292-29.305-29.292s-29.299,13.142-29.299,29.292v93.178H157.35v-93.178
				c0-23.608,19.209-42.816,42.822-42.816c23.614,0,42.828,19.208,42.828,42.816V235.819z"/>
		</g>
	</g>
	<g>
		<path d="M200.172,56.246c8.703,0,15.782,7.078,15.782,15.78c0,8.698-7.079,15.776-15.782,15.776
			c-8.695,0-15.776-7.078-15.776-15.776C184.396,63.324,191.477,56.246,200.172,56.246 M200.172,42.723
			c-16.184,0-29.299,13.118-29.299,29.304c0,16.183,13.115,29.299,29.299,29.299s29.305-13.117,29.305-29.299
			C229.477,55.84,216.355,42.723,200.172,42.723L200.172,42.723z"/>
	</g>
</g>
<g>
	<polygon fill="#D11E22" points="156.319,235.818 111.608,78.811 79.775,182.092 71.36,144.772 67.865,154.237 0,154.237 0,143.82 
		60.607,143.82 73.779,108.146 81.336,141.662 112.004,42.163 156.876,199.739 175.012,142.778 256,142.778 256,153.195 
		182.627,153.195 	"/>
</g>
</svg>
