<?xml version="1.0" encoding="utf-8"?>
<!-- Generator: Adobe Illustrator 16.0.0, SVG Export Plug-In . SVG Version: 6.00 Build 0)  -->
<!DOCTYPE svg PUBLIC "-//W3C//DTD SVG 1.1//EN" "http://www.w3.org/Graphics/SVG/1.1/DTD/svg11.dtd">
<svg version="1.1" id="Calque_1" xmlns="http://www.w3.org/2000/svg" xmlns:xlink="http://www.w3.org/1999/xlink" x="0px" y="0px"
	 width="48px" height="48px" viewBox="0 0 48 48" enable-background="new 0 0 48 48" xml:space="preserve">
<path fill="#343b46" d="M43.463,12.029l-6.379-1.761V6.181c0-3.413-2.768-6.181-6.18-6.181H6.181C2.768,0,0,2.768,0,6.181v24.723
	c0,3.184,2.408,5.803,5.502,6.142c0.599,1.952,2.146,3.567,4.26,4.151l23.833,6.579C34.145,47.928,34.697,48,35.242,48
	c2.71,0,5.198-1.798,5.954-4.538l6.579-23.831C48.684,16.341,46.752,12.937,43.463,12.029z M5.367,33.965
	C4.008,33.603,3,32.374,3,30.903V6.181C3,4.427,4.427,3,6.181,3h24.724c1.753,0,3.18,1.427,3.18,3.181v3.259v3.112v18.352
	c0,1.754-1.427,3.181-3.18,3.181H8.426H6.181C5.897,34.084,5.628,34.035,5.367,33.965z M44.884,18.833l-6.579,23.831
	C37.925,44.039,36.665,45,35.242,45c-0.284,0-0.57-0.039-0.85-0.116l-23.832-6.579c-0.709-0.196-1.303-0.631-1.726-1.221h22.069
	c3.412,0,6.18-2.768,6.18-6.181V13.38l5.58,1.541C44.354,15.387,45.351,17.143,44.884,18.833z"/>
</svg>
