<?xml version="1.0" encoding="utf-8"?>
<!-- Generator: Adobe Illustrator 16.0.0, SVG Export Plug-In . SVG Version: 6.00 Build 0)  -->
<!DOCTYPE svg PUBLIC "-//W3C//DTD SVG 1.1//EN" "http://www.w3.org/Graphics/SVG/1.1/DTD/svg11.dtd">
<svg version="1.1" id="Calque_1" xmlns="http://www.w3.org/2000/svg" xmlns:xlink="http://www.w3.org/1999/xlink" x="0px" y="0px"
	 width="256px" height="256px" viewBox="0 0 256 256" enable-background="new 0 0 256 256" xml:space="preserve">
<path fill="#E81F64" d="M131.805,237.855c-1.441,0.539-2.716,0.979-3.805,1.316C105.116,232.088,0,180.258,0,86.492
	c0-38.474,29.506-69.663,65.902-69.663c28.642,0,53.004,19.319,62.092,46.298c0.001-0.006,0.003-0.011,0.005-0.017
	c9.091-26.973,33.462-46.281,62.1-46.281c36.396,0,65.901,31.189,65.901,69.663C256,175.799,160.65,227.061,131.805,237.855z"/>
<g>
	<polygon fill="#FFFFFF" points="20.945,155.855 34.606,155.443 48.268,155.099 75.591,154.54 74.414,155.267 81.774,139.924 
		83.103,137.155 84.608,139.887 92.933,154.994 91.318,154.025 108.059,153.827 109.43,153.812 109.951,155.125 115.148,168.222 
		111.03,168.503 118.24,137.02 125.599,105.571 128.181,94.537 130.422,105.653 134.33,125.044 138.177,144.446 142.019,163.85 
		145.771,183.271 141.418,183.085 145.576,169.186 149.781,155.3 150.22,153.852 151.688,153.869 164.371,154.02 162.806,154.896 
		172.662,139.303 174.134,136.975 175.396,139.369 183.761,155.237 182.635,154.57 208.846,155.122 221.951,155.455 
		235.057,155.855 221.951,156.256 208.846,156.589 182.635,157.141 181.897,157.155 181.508,156.474 172.624,140.889 
		175.357,140.955 165.937,156.814 165.423,157.679 164.371,157.691 151.688,157.842 153.596,156.411 149.685,170.383 
		145.727,184.34 143.238,193.114 141.373,184.154 137.341,164.789 133.397,145.405 129.458,126.021 125.581,106.625 
		130.403,106.708 122.894,138.12 115.235,169.497 113.571,176.317 111.117,169.778 106.167,156.586 108.059,157.884 91.318,157.686 
		90.196,157.673 89.703,156.717 81.794,141.388 84.627,141.35 76.768,156.443 76.38,157.188 75.591,157.171 48.268,156.612 
		34.606,156.268 	"/>
</g>
</svg>
